<?xml version="1.0" standalone="no"?>
<!DOCTYPE svg PUBLIC "-//W3C//DTD SVG 20010904//EN"
 "http://www.w3.org/TR/2001/REC-SVG-20010904/DTD/svg10.dtd">
<svg version="1.0" xmlns="http://www.w3.org/2000/svg"
 width="1280.000000pt" height="645.000000pt" viewBox="0 0 1280.000000 645.000000"
 preserveAspectRatio="xMidYMid meet">
<metadata>
Created by potrace 1.15, written by Peter Selinger 2001-2017
</metadata>
<g transform="translate(0.000000,645.000000) scale(0.100000,-0.100000)"
fill="#000000" stroke="none">
<path d="M3490 6447 c-3 -4 -116 -13 -250 -22 -557 -35 -908 -83 -1275 -174
-1084 -269 -1712 -858 -1904 -1786 -43 -210 -55 -347 -55 -630 0 -273 14 -477
40 -593 83 -360 267 -734 520 -1052 95 -120 390 -410 514 -506 437 -339 929
-598 1530 -806 504 -175 1093 -311 1550 -359 159 -16 508 -14 651 5 237 30
489 102 709 201 105 47 139 65 329 173 267 151 493 236 791 296 245 50 469 67
1085 84 l249 7 73 395 c102 552 237 1248 413 2124 l150 749 -47 71 c-57 86
-237 267 -354 357 -285 219 -631 411 -1109 616 -888 381 -2132 718 -3035 823
-176 20 -565 38 -575 27z"/>
<path d="M9701 4244 c-24 -83 -158 -648 -326 -1374 -182 -788 -314 -1330 -424
-1743 l-39 -148 96 -77 c334 -269 593 -438 917 -597 559 -275 1078 -364 1553
-265 339 71 672 265 888 518 446 522 557 1276 287 1950 -119 297 -278 536
-518 778 -313 315 -675 539 -1166 722 -337 126 -817 234 -1186 268 l-71 7 -11
-39z"/>
</g>
</svg>
